inDegrees=yes
DataType=double
version=3
OpenSimVersion=4.5-2024-07-22-fc2981e9e
endheader
time	pelvis_tx	pelvis_ty	pelvis_tz	pelvis_tilt	pelvis_list	pelvis_rotation	hip_flexion_r	hip_adduction_r	hip_rotation_r	knee_angle_r	ankle_angle_r	subtalar_angle_r	mtp_angle_r	hip_flexion_l	hip_adduction_l	hip_rotation_l	knee_angle_l	ankle_angle_l	subtalar_angle_l	mtp_angle_l	lumbar_extension	lumbar_bending	lumbar_rotation	ground_force_vx	ground_force_vy	ground_force_vz	ground_force_px	ground_force_py	ground_force_pz	ground_force_vx	ground_force_vy	ground_force_vz	ground_force_px	ground_force_py	ground_force_pz	ground_torque_x	ground_torque_y	ground_torque_z	ground_torque_x	ground_torque_y	ground_torque_z	ground_marker_px	ground_marker_py	ground_marker_pz	ground_marker_px	ground_marker_py	ground_marker_pz	ground_marker_px	ground_marker_py	ground_marker_pz	ground_marker_px	ground_marker_py	ground_marker_pz	ground_marker_px	ground_marker_py	ground_marker_pz	ground_marker_px	ground_marker_py	ground_marker_pz	ground_marker_px	ground_marker_py	ground_marker_pz	ground_marker_px	ground_marker_py	ground_marker_pz	ground_marker_px	ground_marker_py	ground_marker_pz	ground_marker_px	ground_marker_py	ground_marker_pz	ground_marker_px	ground_marker_py	ground_marker_pz	ground_marker_px	ground_marker_py	ground_marker_pz	ground_marker_px	ground_marker_py	ground_marker_pz	ground_marker_px	ground_marker_py	ground_marker_pz	ground_marker_px	ground_marker_py	ground_marker_pz	ground_marker_px	ground_marker_py	ground_marker_pz	ground_marker_px	ground_marker_py	ground_marker_pz	ground_marker_px	ground_marker_py	ground_marker_pz	ground_marker_px	ground_marker_py	ground_marker_pz	ground_marker_px	ground_marker_py	ground_marker_pz	ground_marker_px	ground_marker_py	ground_marker_pz	ground_marker_px	ground_marker_py	ground_marker_pz	ground_marker_px	ground_marker_py	ground_marker_pz	ground_marker_px	ground_marker_py	ground_marker_pz	ground_marker_px	ground_marker_py	ground_marker_pz	ground_marker_px	ground_marker_py	ground_marker_pz	ground_marker_px	ground_marker_py	ground_marker_pz	ground_marker_px	ground_marker_py	ground_marker_pz	ground_marker_px	ground_marker_py	ground_marker_pz	ground_marker_px	ground_marker_py	ground_marker_pz	ground_marker_px	ground_marker_py	ground_marker_pz	ground_marker_px	ground_marker_py	ground_marker_pz	ground_marker_px	ground_marker_py	ground_marker_pz	ground_marker_px	ground_marker_py	ground_marker_pz	ground_marker_px	ground_marker_py	ground_marker_pz	ground_marker_px	ground_marker_py	ground_marker_pz	ground_marker_px	ground_marker_py	ground_marker_pz
0.8624999213043478	1.437098020950158	0.9731603595942342	-0.2667843538537001	-4.744560208736435	2.301176416821044	4.852922662196026	4.671029813621338	-0.06836996294657319	4.293776431626455	-9.282844583756003	8.06506028754978	-1.287320416803429e-09	-1.708572495895489e-09	22.1144292030349	0.6716813460360738	10	-39.07985822215159	0.1276302915084508	-2.413237106227555e-09	-1.202592441493822e-09	-0.7444724381368936	-6.459825933771068	3.404740405657574	-4.218778358336417	486.8616990339972	-31.86943764127129	1.390572404979951	1.609939436840407e-10	-0.2051894957350174	-4.218778358336417	486.8616990339972	-31.86943764127129	1.390572404979951	1.609939436840407e-10	-0.2051894957350174	-1.071363151714449e-09	2.403386182121588	-1.047236769751544e-09	-1.071363151714449e-09	2.403386182121588	-1.047236769751544e-09	1.381291112738737	0.8268507408603096	-0.264633566475562	1.381291112738737	0.8268507408603096	-0.264633566475562	1.381291112738737	0.8268507408603096	-0.264633566475562	1.381291112738737	0.8268507408603096	-0.264633566475562	1.381291112738737	0.8268507408603096	-0.264633566475562	1.381291112738737	0.8268507408603096	-0.264633566475562	1.381291112738737	0.8268507408603096	-0.264633566475562	1.381291112738737	0.8268507408603096	-0.264633566475562	1.381291112738737	0.8268507408603096	-0.264633566475562	1.381291112738737	0.8268507408603096	-0.264633566475562	1.381291112738737	0.8268507408603096	-0.264633566475562	1.381291112738737	0.8268507408603096	-0.264633566475562	1.381291112738737	0.8268507408603096	-0.264633566475562	1.381291112738737	0.8268507408603096	-0.264633566475562	1.381291112738737	0.8268507408603096	-0.264633566475562	1.381291112738737	0.8268507408603096	-0.264633566475562	1.381291112738737	0.8268507408603096	-0.264633566475562	1.381291112738737	0.8268507408603096	-0.264633566475562	1.381291112738737	0.8268507408603096	-0.264633566475562	1.381291112738737	0.8268507408603096	-0.264633566475562	1.381291112738737	0.8268507408603096	-0.264633566475562	1.381291112738737	0.8268507408603096	-0.264633566475562	1.381291112738737	0.8268507408603096	-0.264633566475562	1.381291112738737	0.8268507408603096	-0.264633566475562	1.381291112738737	0.8268507408603096	-0.264633566475562	1.381291112738737	0.8268507408603096	-0.264633566475562	1.381291112738737	0.8268507408603096	-0.264633566475562	1.381291112738737	0.8268507408603096	-0.264633566475562	1.381291112738737	0.8268507408603096	-0.264633566475562	1.381291112738737	0.8268507408603096	-0.264633566475562	1.381291112738737	0.8268507408603096	-0.264633566475562	1.381291112738737	0.8268507408603096	-0.264633566475562	1.381291112738737	0.8268507408603096	-0.264633566475562	1.381291112738737	0.8268507408603096	-0.264633566475562	1.381291112738737	0.8268507408603096	-0.264633566475562	1.381291112738737	0.8268507408603096	-0.264633566475562	1.381291112738737	0.8268507408603096	-0.264633566475562
0.8833332539130435	1.451975035696429	0.9731603595942342	-0.2665275820229067	-4.97792150624289	2.563077521865352	4.625224650778962	2.760633584153463	-0.02257957579602753	3.611043875281143	-8.348534936817082	8.972803310959838	1.607315661625738e-09	9.727084037213594e-10	23.87215577907936	1.502116497582335	10	-34.59311503932616	1.739612804617755	-2.517283872167375e-09	-1.738711460339611e-09	-0.4971845414588953	-6.241201280571255	3.634641739133614	3.593713458674041	508.3902546990203	-33.27521211699682	1.397864138040859	-1.321516870514108e-09	-0.2046418945313087	3.593713458674041	508.3902546990203	-33.27521211699682	1.397864138040859	-1.321516870514108e-09	-0.2046418945313087	-2.647436731011383e-10	2.509324539948192	-7.161154775849023e-10	-2.647436731011383e-10	2.509324539948192	-7.161154775849023e-10	1.399974667128381	0.8284490424856442	-0.2655735096923524	1.399974667128381	0.8284490424856442	-0.2655735096923524	1.399974667128381	0.8284490424856442	-0.2655735096923524	1.399974667128381	0.8284490424856442	-0.2655735096923524	1.399974667128381	0.8284490424856442	-0.2655735096923524	1.399974667128381	0.8284490424856442	-0.2655735096923524	1.399974667128381	0.8284490424856442	-0.2655735096923524	1.399974667128381	0.8284490424856442	-0.2655735096923524	1.399974667128381	0.8284490424856442	-0.2655735096923524	1.399974667128381	0.8284490424856442	-0.2655735096923524	1.399974667128381	0.8284490424856442	-0.2655735096923524	1.399974667128381	0.8284490424856442	-0.2655735096923524	1.399974667128381	0.8284490424856442	-0.2655735096923524	1.399974667128381	0.8284490424856442	-0.2655735096923524	1.399974667128381	0.8284490424856442	-0.2655735096923524	1.399974667128381	0.8284490424856442	-0.2655735096923524	1.399974667128381	0.8284490424856442	-0.2655735096923524	1.399974667128381	0.8284490424856442	-0.2655735096923524	1.399974667128381	0.8284490424856442	-0.2655735096923524	1.399974667128381	0.8284490424856442	-0.2655735096923524	1.399974667128381	0.8284490424856442	-0.2655735096923524	1.399974667128381	0.8284490424856442	-0.2655735096923524	1.399974667128381	0.8284490424856442	-0.2655735096923524	1.399974667128381	0.8284490424856442	-0.2655735096923524	1.399974667128381	0.8284490424856442	-0.2655735096923524	1.399974667128381	0.8284490424856442	-0.2655735096923524	1.399974667128381	0.8284490424856442	-0.2655735096923524	1.399974667128381	0.8284490424856442	-0.2655735096923524	1.399974667128381	0.8284490424856442	-0.2655735096923524	1.399974667128381	0.8284490424856442	-0.2655735096923524	1.399974667128381	0.8284490424856442	-0.2655735096923524	1.399974667128381	0.8284490424856442	-0.2655735096923524	1.399974667128381	0.8284490424856442	-0.2655735096923524	1.399974667128381	0.8284490424856442	-0.2655735096923524	1.399974667128381	0.8284490424856442	-0.2655735096923524	1.399974667128381	0.8284490424856442	-0.2655735096923524	1.399974667128381	0.8284490424856442	-0.2655735096923524
0.9041665865217391	1.472015973622756	0.9731603595942342	-0.2671394019269687	-5.290364482539604	2.614945487191427	4.497946460362687	1.174712482825213	0.1901502935635848	2.935775469699953	-7.653860937269487	10.11639259739701	4.94486572440348e-09	2.322930212071361e-09	25.47083674489835	2.178860314139026	10	-30.04244135603276	2.557635124120424	-3.452637827175862e-10	-2.269696347564238e-09	-0.2647249920003282	-6.232126295664873	3.330232552010872	10.87388673198289	534.2408926988102	-33.29241578604809	1.401976747170149	-5.841160291639972e-10	-0.2053563339607059	10.87388673198289	534.2408926988102	-33.29241578604809	1.401976747170149	-5.841160291639972e-10	-0.2053563339607059	1.100169756923765e-09	2.671629121389634	1.289105195876528e-10	1.100169756923765e-09	2.671629121389634	1.289105195876528e-10	1.420761887871753	0.8253663971776621	-0.2646102407161097	1.420761887871753	0.8253663971776621	-0.2646102407161097	1.420761887871753	0.8253663971776621	-0.2646102407161097	1.420761887871753	0.8253663971776621	-0.2646102407161097	1.420761887871753	0.8253663971776621	-0.2646102407161097	1.420761887871753	0.8253663971776621	-0.2646102407161097	1.420761887871753	0.8253663971776621	-0.2646102407161097	1.420761887871753	0.8253663971776621	-0.2646102407161097	1.420761887871753	0.8253663971776621	-0.2646102407161097	1.420761887871753	0.8253663971776621	-0.2646102407161097	1.420761887871753	0.8253663971776621	-0.2646102407161097	1.420761887871753	0.8253663971776621	-0.2646102407161097	1.420761887871753	0.8253663971776621	-0.2646102407161097	1.420761887871753	0.8253663971776621	-0.2646102407161097	1.420761887871753	0.8253663971776621	-0.2646102407161097	1.420761887871753	0.8253663971776621	-0.2646102407161097	1.420761887871753	0.8253663971776621	-0.2646102407161097	1.420761887871753	0.8253663971776621	-0.2646102407161097	1.420761887871753	0.8253663971776621	-0.2646102407161097	1.420761887871753	0.8253663971776621	-0.2646102407161097	1.420761887871753	0.8253663971776621	-0.2646102407161097	1.420761887871753	0.8253663971776621	-0.2646102407161097	1.420761887871753	0.8253663971776621	-0.2646102407161097	1.420761887871753	0.8253663971776621	-0.2646102407161097	1.420761887871753	0.8253663971776621	-0.2646102407161097	1.420761887871753	0.8253663971776621	-0.2646102407161097	1.420761887871753	0.8253663971776621	-0.2646102407161097	1.420761887871753	0.8253663971776621	-0.2646102407161097	1.420761887871753	0.8253663971776621	-0.2646102407161097	1.420761887871753	0.8253663971776621	-0.2646102407161097	1.420761887871753	0.8253663971776621	-0.2646102407161097	1.420761887871753	0.8253663971776621	-0.2646102407161097	1.420761887871753	0.8253663971776621	-0.2646102407161097	1.420761887871753	0.8253663971776621	-0.2646102407161097	1.420761887871753	0.8253663971776621	-0.2646102407161097	1.420761887871753	0.8253663971776621	-0.2646102407161097	1.420761887871753	0.8253663971776621	-0.2646102407161097
0.9249999191304348	1.492435879366893	0.9731603595942342	-0.2679282311999093	-5.637559590327696	2.523315839427542	4.409294228554253	-0.2024467125252888	0.509207184081612	2.206995416711931	-7.24577585767716	11.15947139693283	4.247972182831998e-09	1.573637616008673e-09	26.85666089319871	2.690656888690075	10	-25.2004994896818	2.491753584502113	-1.506752384459924e-10	-1.552766227790446e-09	-0.005055790519834319	-6.216026997899183	3.567860335291412	18.56957313301157	564.7555661423597	-32.17852001375744	1.405681844543316	2.519852974273187e-09	-0.2066202735184127	18.56957313301157	564.7555661423597	-32.17852001375744	1.405681844543316	2.519852974273187e-09	-0.2066202735184127	1.647717157949708e-09	2.914541217681317	4.118104464333506e-10	1.647717157949708e-09	2.914541217681317	4.118104464333506e-10	1.442560392104763	0.8237894994129997	-0.2624216388644234	1.442560392104763	0.8237894994129997	-0.2624216388644234	1.442560392104763	0.8237894994129997	-0.2624216388644234	1.442560392104763	0.8237894994129997	-0.2624216388644234	1.442560392104763	0.8237894994129997	-0.2624216388644234	1.442560392104763	0.8237894994129997	-0.2624216388644234	1.442560392104763	0.8237894994129997	-0.2624216388644234	1.442560392104763	0.8237894994129997	-0.2624216388644234	1.442560392104763	0.8237894994129997	-0.2624216388644234	1.442560392104763	0.8237894994129997	-0.2624216388644234	1.442560392104763	0.8237894994129997	-0.2624216388644234	1.442560392104763	0.8237894994129997	-0.2624216388644234	1.442560392104763	0.8237894994129997	-0.2624216388644234	1.442560392104763	0.8237894994129997	-0.2624216388644234	1.442560392104763	0.8237894994129997	-0.2624216388644234	1.442560392104763	0.8237894994129997	-0.2624216388644234	1.442560392104763	0.8237894994129997	-0.2624216388644234	1.442560392104763	0.8237894994129997	-0.2624216388644234	1.442560392104763	0.8237894994129997	-0.2624216388644234	1.442560392104763	0.8237894994129997	-0.2624216388644234	1.442560392104763	0.8237894994129997	-0.2624216388644234	1.442560392104763	0.8237894994129997	-0.2624216388644234	1.442560392104763	0.8237894994129997	-0.2624216388644234	1.442560392104763	0.8237894994129997	-0.2624216388644234	1.442560392104763	0.8237894994129997	-0.2624216388644234	1.442560392104763	0.8237894994129997	-0.2624216388644234	1.442560392104763	0.8237894994129997	-0.2624216388644234	1.442560392104763	0.8237894994129997	-0.2624216388644234	1.442560392104763	0.8237894994129997	-0.2624216388644234	1.442560392104763	0.8237894994129997	-0.2624216388644234	1.442560392104763	0.8237894994129997	-0.2624216388644234	1.442560392104763	0.8237894994129997	-0.2624216388644234	1.442560392104763	0.8237894994129997	-0.2624216388644234	1.442560392104763	0.8237894994129997	-0.2624216388644234	1.442560392104763	0.8237894994129997	-0.2624216388644234	1.442560392104763	0.8237894994129997	-0.2624216388644234	1.442560392104763	0.8237894994129997	-0.2624216388644234
